<svg width="25" height="24" viewBox="0 0 25 24" fill="none" xmlns="http://www.w3.org/2000/svg">
<path d="M23.8974 9.58905L13.9478 9.58859C13.5085 9.58859 13.1523 9.92747 13.1523 10.3456V13.3705C13.1523 13.7885 13.5085 14.1275 13.9478 14.1275H19.5508C18.9372 15.6428 17.7921 16.9118 16.3311 17.7182L18.7202 21.6541C22.5527 19.5448 24.8184 15.8437 24.8184 11.7005C24.8184 11.1106 24.7727 10.6889 24.6814 10.2141C24.6119 9.85329 24.2828 9.58905 23.8974 9.58905Z" fill="#167EE6"/>
<path d="M12.6214 18.6723C9.87943 18.6723 7.4857 17.2466 6.20007 15.1367L2.06445 17.4053C4.16904 20.8767 8.11162 23.2143 12.6214 23.2143C14.8338 23.2143 16.9213 22.6474 18.7196 21.6595V21.6541L16.3305 17.7181C15.2377 18.3213 13.9731 18.6723 12.6214 18.6723Z" fill="#12B347"/>
<path d="M18.7212 21.6594V21.654L16.3321 17.718C15.2393 18.3212 13.9748 18.6723 12.623 18.6723V23.2143C14.8354 23.2143 16.923 22.6474 18.7212 21.6594Z" fill="#0F993E"/>
<path d="M5.19828 11.6072C5.19828 10.3209 5.56713 9.11756 6.20082 8.07758L2.06519 5.80902C1.0214 7.51504 0.425781 9.49633 0.425781 11.6072C0.425781 13.7181 1.0214 15.6993 2.06519 17.4054L6.20082 15.1368C5.56713 14.0968 5.19828 12.8935 5.19828 11.6072Z" fill="#FFD500"/>
<path d="M12.6214 4.54193C14.4095 4.54193 16.0519 5.14659 17.3348 6.15237C17.6512 6.40048 18.1112 6.38257 18.4011 6.10667L20.6532 3.96343C20.9821 3.6504 20.9586 3.13801 20.6073 2.84792C18.4579 1.07334 15.6613 0 12.6214 0C8.11162 0 4.16904 2.33762 2.06445 5.80897L6.20007 8.07753C7.4857 5.9677 9.87943 4.54193 12.6214 4.54193Z" fill="#FF4B26"/>
<path d="M17.3364 6.15238C17.6529 6.40048 18.1129 6.38257 18.4028 6.10667L20.6548 3.96343C20.9837 3.6504 20.9602 3.13801 20.6089 2.84792C18.4595 1.0733 15.6629 0 12.623 0V4.54193C14.4111 4.54193 16.0535 5.14659 17.3364 6.15238Z" fill="#D93F21"/>
</svg>
